<?xml version="1.0" encoding="utf-8" ?>
<svg baseProfile="full" height="354.3307" version="1.1" width="1665.35429" xmlns="http://www.w3.org/2000/svg" xmlns:ev="http://www.w3.org/2001/xml-events" xmlns:xlink="http://www.w3.org/1999/xlink"><defs /><rect fill="white" height="354.3307" opacity="1" stroke-width="0" width="1665.35429" x="0.0" y="0.0" /><g><g id="vlines" stroke="lightgray"><line x1="0.0" x2="0.0" y1="70.86614" y2="318.89763" /><text fill="black" font-family="Verdana" font-size="12" stroke="black" stroke-width="0" x="3.543307" y="67.322833">T 21</text><line x1="35.43307" x2="35.43307" y1="70.86614" y2="318.89763" /><text fill="black" font-family="Verdana" font-size="12" stroke="black" stroke-width="0" x="38.976377" y="67.322833">F 22</text><line x1="70.86614" x2="70.86614" y1="70.86614" y2="318.89763" /><rect fill="gray" height="248.03149000000002" opacity="0.7" stroke="lightgray" stroke-width="1" width="35.43307" x="70.86614" y="70.86614" /><text fill="black" font-family="Verdana" font-size="12" stroke="black" stroke-width="0" x="74.409447" y="67.322833">S 23</text><line x1="106.29921" x2="106.29921" y1="70.86614" y2="318.89763" /><rect fill="gray" height="248.03149000000002" opacity="0.7" stroke="lightgray" stroke-width="1" width="35.43307" x="106.29921" y="70.86614" /><text fill="black" font-family="Verdana" font-size="12" stroke="black" stroke-width="0" x="109.842517" y="67.322833">S 24</text><line x1="141.73228" x2="141.73228" y1="70.86614" y2="318.89763" /><text fill="black" font-family="Verdana" font-size="12" stroke="black" stroke-width="0" x="145.275587" y="67.322833">M 25</text><text fill="black" font-family="Verdana" font-size="16" font-weight="bold" stroke="black" stroke-width="0" x="145.275587" y="53.149605">52</text><line x1="177.16535" x2="177.16535" y1="70.86614" y2="318.89763" /><text fill="black" font-family="Verdana" font-size="12" stroke="black" stroke-width="0" x="180.708657" y="67.322833">T 26</text><line x1="212.59842" x2="212.59842" y1="70.86614" y2="318.89763" /><text fill="black" font-family="Verdana" font-size="12" stroke="black" stroke-width="0" x="216.141727" y="67.322833">W 27</text><line x1="248.03149000000002" x2="248.03149000000002" y1="70.86614" y2="318.89763" /><text fill="black" font-family="Verdana" font-size="12" stroke="black" stroke-width="0" x="251.574797" y="67.322833">T 28</text><line x1="283.46456" x2="283.46456" y1="70.86614" y2="318.89763" /><text fill="black" font-family="Verdana" font-size="12" stroke="black" stroke-width="0" x="287.007867" y="67.322833">F 29</text><line x1="318.89763" x2="318.89763" y1="70.86614" y2="318.89763" /><rect fill="gray" height="248.03149000000002" opacity="0.7" stroke="lightgray" stroke-width="1" width="35.43307" x="318.89763" y="70.86614" /><text fill="black" font-family="Verdana" font-size="12" stroke="black" stroke-width="0" x="322.440937" y="67.322833">S 30</text><line x1="354.3307" x2="354.3307" y1="70.86614" y2="318.89763" /><rect fill="gray" height="248.03149000000002" opacity="0.7" stroke="lightgray" stroke-width="1" width="35.43307" x="354.3307" y="70.86614" /><text fill="black" font-family="Verdana" font-size="12" stroke="black" stroke-width="0" x="357.874007" y="67.322833">S 31</text><line x1="389.76377" x2="389.76377" y1="70.86614" y2="318.89763" /><text fill="black" font-family="Verdana" font-size="12" stroke="black" stroke-width="0" x="393.307077" y="67.322833">M 01</text><text fill="#400000" font-family="Verdana" font-size="20" font-weight="bold" stroke="#400000" stroke-width="0" x="393.307077" y="17.716535">2018</text><text fill="#800000" font-family="Verdana" font-size="18" font-weight="bold" stroke="#800000" stroke-width="0" x="393.307077" y="35.43307">January</text><text fill="black" font-family="Verdana" font-size="16" font-weight="bold" stroke="black" stroke-width="0" x="393.307077" y="53.149605">01</text><line x1="425.19684" x2="425.19684" y1="70.86614" y2="318.89763" /><text fill="black" font-family="Verdana" font-size="12" stroke="black" stroke-width="0" x="428.740147" y="67.322833">T 02</text><line x1="460.62991" x2="460.62991" y1="70.86614" y2="318.89763" /><text fill="black" font-family="Verdana" font-size="12" stroke="black" stroke-width="0" x="464.173217" y="67.322833">W 03</text><line x1="496.06298000000004" x2="496.06298000000004" y1="70.86614" y2="318.89763" /><text fill="black" font-family="Verdana" font-size="12" stroke="black" stroke-width="0" x="499.606287" y="67.322833">T 04</text><line x1="531.49605" x2="531.49605" y1="70.86614" y2="318.89763" /><text fill="black" font-family="Verdana" font-size="12" stroke="black" stroke-width="0" x="535.039357" y="67.322833">F 05</text><line x1="566.92912" x2="566.92912" y1="70.86614" y2="318.89763" /><rect fill="gray" height="248.03149000000002" opacity="0.7" stroke="lightgray" stroke-width="1" width="35.43307" x="566.92912" y="70.86614" /><text fill="black" font-family="Verdana" font-size="12" stroke="black" stroke-width="0" x="570.472427" y="67.322833">S 06</text><line x1="602.36219" x2="602.36219" y1="70.86614" y2="318.89763" /><rect fill="gray" height="248.03149000000002" opacity="0.7" stroke="lightgray" stroke-width="1" width="35.43307" x="602.36219" y="70.86614" /><text fill="black" font-family="Verdana" font-size="12" stroke="black" stroke-width="0" x="605.905497" y="67.322833">S 07</text><line x1="637.79526" x2="637.79526" y1="70.86614" y2="318.89763" /><text fill="black" font-family="Verdana" font-size="12" stroke="black" stroke-width="0" x="641.338567" y="67.322833">M 08</text><text fill="black" font-family="Verdana" font-size="16" font-weight="bold" stroke="black" stroke-width="0" x="641.338567" y="53.149605">02</text><line x1="673.22833" x2="673.22833" y1="70.86614" y2="318.89763" /><text fill="black" font-family="Verdana" font-size="12" stroke="black" stroke-width="0" x="676.7716369999999" y="67.322833">T 09</text><line x1="708.6614" x2="708.6614" y1="70.86614" y2="318.89763" /><text fill="black" font-family="Verdana" font-size="12" stroke="black" stroke-width="0" x="712.204707" y="67.322833">W 10</text><line x1="744.09447" x2="744.09447" y1="70.86614" y2="318.89763" /><text fill="black" font-family="Verdana" font-size="12" stroke="black" stroke-width="0" x="747.637777" y="67.322833">T 11</text><line x1="779.52754" x2="779.52754" y1="70.86614" y2="318.89763" /><text fill="black" font-family="Verdana" font-size="12" stroke="black" stroke-width="0" x="783.070847" y="67.322833">F 12</text><line x1="814.96061" x2="814.96061" y1="70.86614" y2="318.89763" /><rect fill="gray" height="248.03149000000002" opacity="0.7" stroke="lightgray" stroke-width="1" width="35.43307" x="814.96061" y="70.86614" /><text fill="black" font-family="Verdana" font-size="12" stroke="black" stroke-width="0" x="818.503917" y="67.322833">S 13</text><line x1="850.39368" x2="850.39368" y1="70.86614" y2="318.89763" /><rect fill="gray" height="248.03149000000002" opacity="0.7" stroke="lightgray" stroke-width="1" width="35.43307" x="850.39368" y="70.86614" /><text fill="black" font-family="Verdana" font-size="12" stroke="black" stroke-width="0" x="853.936987" y="67.322833">S 14</text><line x1="885.8267500000001" x2="885.8267500000001" y1="70.86614" y2="318.89763" /><text fill="black" font-family="Verdana" font-size="12" stroke="black" stroke-width="0" x="889.370057" y="67.322833">M 15</text><text fill="black" font-family="Verdana" font-size="16" font-weight="bold" stroke="black" stroke-width="0" x="889.370057" y="53.149605">03</text><line x1="921.25982" x2="921.25982" y1="70.86614" y2="318.89763" /><text fill="black" font-family="Verdana" font-size="12" stroke="black" stroke-width="0" x="924.803127" y="67.322833">T 16</text><line x1="956.69289" x2="956.69289" y1="70.86614" y2="318.89763" /><text fill="black" font-family="Verdana" font-size="12" stroke="black" stroke-width="0" x="960.236197" y="67.322833">W 17</text><line x1="992.1259600000001" x2="992.1259600000001" y1="70.86614" y2="318.89763" /><text fill="black" font-family="Verdana" font-size="12" stroke="black" stroke-width="0" x="995.669267" y="67.322833">T 18</text><line x1="1027.5590300000001" x2="1027.5590300000001" y1="70.86614" y2="318.89763" /><text fill="black" font-family="Verdana" font-size="12" stroke="black" stroke-width="0" x="1031.102337" y="67.322833">F 19</text><line x1="1062.9921" x2="1062.9921" y1="70.86614" y2="318.89763" /><rect fill="gray" height="248.03149000000002" opacity="0.7" stroke="lightgray" stroke-width="1" width="35.43307" x="1062.9921" y="70.86614" /><text fill="black" font-family="Verdana" font-size="12" stroke="black" stroke-width="0" x="1066.535407" y="67.322833">S 20</text><line x1="1098.42517" x2="1098.42517" y1="70.86614" y2="318.89763" /><rect fill="gray" height="248.03149000000002" opacity="0.7" stroke="lightgray" stroke-width="1" width="35.43307" x="1098.42517" y="70.86614" /><text fill="black" font-family="Verdana" font-size="12" stroke="black" stroke-width="0" x="1101.968477" y="67.322833">S 21</text><line x1="1133.85824" x2="1133.85824" y1="70.86614" y2="318.89763" /><text fill="black" font-family="Verdana" font-size="12" stroke="black" stroke-width="0" x="1137.401547" y="67.322833">M 22</text><text fill="black" font-family="Verdana" font-size="16" font-weight="bold" stroke="black" stroke-width="0" x="1137.401547" y="53.149605">04</text><line x1="1169.29131" x2="1169.29131" y1="70.86614" y2="318.89763" /><text fill="black" font-family="Verdana" font-size="12" stroke="black" stroke-width="0" x="1172.834617" y="67.322833">T 23</text><line x1="1204.72438" x2="1204.72438" y1="70.86614" y2="318.89763" /><text fill="black" font-family="Verdana" font-size="12" stroke="black" stroke-width="0" x="1208.267687" y="67.322833">W 24</text><line x1="1240.15745" x2="1240.15745" y1="70.86614" y2="318.89763" /><text fill="black" font-family="Verdana" font-size="12" stroke="black" stroke-width="0" x="1243.700757" y="67.322833">T 25</text><line x1="1275.59052" x2="1275.59052" y1="70.86614" y2="318.89763" /><text fill="black" font-family="Verdana" font-size="12" stroke="black" stroke-width="0" x="1279.1338269999999" y="67.322833">F 26</text><line x1="1311.02359" x2="1311.02359" y1="70.86614" y2="318.89763" /><rect fill="gray" height="248.03149000000002" opacity="0.7" stroke="lightgray" stroke-width="1" width="35.43307" x="1311.02359" y="70.86614" /><text fill="black" font-family="Verdana" font-size="12" stroke="black" stroke-width="0" x="1314.566897" y="67.322833">S 27</text><line x1="1346.45666" x2="1346.45666" y1="70.86614" y2="318.89763" /><rect fill="gray" height="248.03149000000002" opacity="0.7" stroke="lightgray" stroke-width="1" width="35.43307" x="1346.45666" y="70.86614" /><text fill="black" font-family="Verdana" font-size="12" stroke="black" stroke-width="0" x="1349.999967" y="67.322833">S 28</text><line x1="1381.88973" x2="1381.88973" y1="70.86614" y2="318.89763" /><text fill="black" font-family="Verdana" font-size="12" stroke="black" stroke-width="0" x="1385.433037" y="67.322833">M 29</text><text fill="black" font-family="Verdana" font-size="16" font-weight="bold" stroke="black" stroke-width="0" x="1385.433037" y="53.149605">05</text><line x1="1417.3228" x2="1417.3228" y1="70.86614" y2="318.89763" /><text fill="black" font-family="Verdana" font-size="12" stroke="black" stroke-width="0" x="1420.866107" y="67.322833">T 30</text><line x1="1452.75587" x2="1452.75587" y1="70.86614" y2="318.89763" /><text fill="black" font-family="Verdana" font-size="12" stroke="black" stroke-width="0" x="1456.299177" y="67.322833">W 31</text><line x1="1488.18894" x2="1488.18894" y1="70.86614" y2="318.89763" /><text fill="black" font-family="Verdana" font-size="12" stroke="black" stroke-width="0" x="1491.732247" y="67.322833">T 01</text><text fill="#800000" font-family="Verdana" font-size="18" font-weight="bold" stroke="#800000" stroke-width="0" x="1491.732247" y="35.43307">February</text><line x1="1523.62201" x2="1523.62201" y1="70.86614" y2="318.89763" /><text fill="black" font-family="Verdana" font-size="12" stroke="black" stroke-width="0" x="1527.165317" y="67.322833">F 02</text><line x1="1559.05508" x2="1559.05508" y1="70.86614" y2="318.89763" /><rect fill="gray" height="248.03149000000002" opacity="0.7" stroke="lightgray" stroke-width="1" width="35.43307" x="1559.05508" y="70.86614" /><text fill="black" font-family="Verdana" font-size="12" stroke="black" stroke-width="0" x="1562.598387" y="67.322833">S 03</text><line x1="1594.4881500000001" x2="1594.4881500000001" y1="70.86614" y2="318.89763" /><rect fill="gray" height="248.03149000000002" opacity="0.7" stroke="lightgray" stroke-width="1" width="35.43307" x="1594.4881500000001" y="70.86614" /><text fill="black" font-family="Verdana" font-size="12" stroke="black" stroke-width="0" x="1598.031457" y="67.322833">S 04</text><line x1="1629.92122" x2="1629.92122" y1="70.86614" y2="318.89763" /><text fill="black" font-family="Verdana" font-size="12" stroke="black" stroke-width="0" x="1633.464527" y="67.322833">M 05</text><text fill="black" font-family="Verdana" font-size="16" font-weight="bold" stroke="black" stroke-width="0" x="1633.464527" y="53.149605">06</text><line x1="1665.35429" x2="1665.35429" y1="70.86614" y2="318.89763" /></g><g id="hlines" stroke="lightgray"><line x1="0.0" x2="1665.35429" y1="70.86614" y2="70.86614" /><line x1="0.0" x2="1665.35429" y1="106.29921" y2="106.29921" /><line x1="0.0" x2="1665.35429" y1="141.73228" y2="141.73228" /><line x1="0.0" x2="1665.35429" y1="177.16535" y2="177.16535" /><line x1="0.0" x2="1665.35429" y1="212.59842" y2="212.59842" /><line x1="0.0" x2="1665.35429" y1="248.03149000000002" y2="248.03149000000002" /><line x1="0.0" x2="1665.35429" y1="283.46456" y2="283.46456" /><line x1="0.0" x2="1665.35429" y1="318.89763" y2="318.89763" /></g><line stroke="black" x1="0.0" x2="1665.35429" y1="70.86614" y2="70.86614" /><line stroke="black" x1="0.0" x2="1665.35429" y1="318.89763" y2="318.89763" /></g><g><g><text fill="black" font-family="Verdana" font-size="18" stroke="black" stroke-width="0" x="10.629921" y="95.669289">SOES prject</text><rect fill="purple" height="226.77164800000003" opacity="0.5" stroke="lightgray" stroke-width="0" width="7.086614000000001" x="2.8346456" y="88.582675" /><g><g id="research_about_MQTT"><rect fill="#FF8080" height="28.346456" opacity="0.85" stroke="#FF8080" stroke-width="2" width="170.078736" x="38.976377" y="109.842517" /><rect fill="#909090" height="10.629921" opacity="0.2" stroke="#FF8080" stroke-width="1" width="170.078736" x="38.976377" y="127.559052" /><text fill="black" font-family="Verdana" font-size="15" stroke="black" stroke-width="0" x="42.519684" y="124.015745">research about MQTT</text><text fill="purple" font-family="Verdana" font-size="10" stroke="black" stroke-width="0" x="42.519684" y="136.4173195">Ehsan / Hamed</text></g><g id="Take_the_Pi_from_Alvin"><rect fill="#FFFF90" height="28.346456" opacity="0.85" stroke="#FFFF90" stroke-width="2" width="28.346456" x="3.543307" y="145.275587" /><rect fill="#909090" height="10.629921" opacity="0.2" stroke="#FFFF90" stroke-width="1" width="28.346456" x="3.543307" y="162.992122" /><text fill="black" font-family="Verdana" font-size="15" stroke="black" stroke-width="0" x="7.086614" y="159.448815">Take the Pi from Alvin</text><text fill="purple" font-family="Verdana" font-size="10" stroke="black" stroke-width="0" x="7.086614" y="171.8503895">Ehsan</text></g><g id="Implementation"><rect fill="#FFFF90" height="28.346456" opacity="0.85" stroke="#FFFF90" stroke-width="2" width="382.677156" x="641.338567" y="180.708657" /><rect fill="#909090" height="10.629921" opacity="0.2" stroke="#FFFF90" stroke-width="1" width="382.677156" x="641.338567" y="198.425192" /><text fill="black" font-family="Verdana" font-size="15" stroke="black" stroke-width="0" x="644.881874" y="194.881885">Implementation</text><text fill="purple" font-family="Verdana" font-size="10" stroke="black" stroke-width="0" x="644.881874" y="207.2834595">Sepehr / Ehsan / Hamed</text></g><g id="Ask_about_the_progress_from_Alvin"><rect fill="#FFFF90" height="28.346456" opacity="0.85" stroke="#FFFF90" stroke-width="2" width="28.346456" x="1137.401547" y="216.141727" /><rect fill="#909090" height="10.629921" opacity="0.2" stroke="#FFFF90" stroke-width="1" width="28.346456" x="1137.401547" y="233.858262" /><rect fill="#0000FF" height="14.173228" opacity="0.35" stroke="#FFFF90" stroke-width="1" width="17.716535" x="1137.401547" y="216.141727" /><text fill="black" font-family="Verdana" font-size="15" stroke="black" stroke-width="0" x="1140.944854" y="230.314955">Ask about the progress from Alvin</text><text fill="purple" font-family="Verdana" font-size="10" stroke="black" stroke-width="0" x="1140.944854" y="242.7165295">Sepehr / Ehsan / Hamed</text></g><g id="Make_the_final_changes"><rect fill="#FFFF90" height="28.346456" opacity="0.85" stroke="#FFFF90" stroke-width="2" width="311.811016" x="1172.834617" y="251.574797" /><rect fill="#909090" height="10.629921" opacity="0.2" stroke="#FFFF90" stroke-width="1" width="311.811016" x="1172.834617" y="269.291332" /><rect fill="#0000FF" height="14.173228" opacity="0.35" stroke="#FFFF90" stroke-width="1" width="17.716535" x="1172.834617" y="251.574797" /><text fill="black" font-family="Verdana" font-size="15" stroke="black" stroke-width="0" x="1176.377924" y="265.748025">Make the final changes</text><text fill="purple" font-family="Verdana" font-size="10" stroke="black" stroke-width="0" x="1176.377924" y="278.1495995">Sepehr / Ehsan / Hamed</text></g><g id="Getting_ready_for_final_presentation"><rect fill="#FFFF90" height="28.346456" opacity="0.85" stroke="#FFFF90" stroke-width="2" width="170.078736" x="1491.732247" y="287.007867" /><rect fill="#909090" height="10.629921" opacity="0.2" stroke="#FFFF90" stroke-width="1" width="170.078736" x="1491.732247" y="304.724402" /><text fill="black" font-family="Verdana" font-size="15" stroke="black" stroke-width="0" x="1495.275554" y="301.18109499999997">Getting ready for final presentation</text><text fill="purple" font-family="Verdana" font-size="10" stroke="black" stroke-width="0" x="1495.275554" y="313.5826695">Sepehr / Ehsan / Hamed</text></g></g></g><g><g><line stroke="black" stroke-dasharray="5,3" x1="205.511806" x2="637.79526" y1="124.015745" y2="124.015745" /><marker id="id1" markerHeight="10" markerWidth="10" refX="5" refY="5"><circle cx="5" cy="5" fill="#000000" opacity="0.5" r="5" stroke-width="0" /></marker><line marker-end="url(#id1)" stroke="black" stroke-dasharray="5,3" x1="637.79526" x2="637.79526" y1="124.015745" y2="194.881885" /><line stroke="black" stroke-dasharray="5,3" x1="28.346456" x2="637.79526" y1="159.448815" y2="159.448815" /><marker id="id2" markerHeight="10" markerWidth="10" refX="5" refY="5"><circle cx="5" cy="5" fill="#000000" opacity="0.5" r="5" stroke-width="0" /></marker><line marker-end="url(#id2)" stroke="black" stroke-dasharray="5,3" x1="637.79526" x2="637.79526" y1="159.448815" y2="194.881885" /></g><g><line stroke="black" stroke-dasharray="5,3" x1="1020.472416" x2="1133.85824" y1="194.881885" y2="194.881885" /><marker id="id3" markerHeight="10" markerWidth="10" refX="5" refY="5"><circle cx="5" cy="5" fill="#000000" opacity="0.5" r="5" stroke-width="0" /></marker><line marker-end="url(#id3)" stroke="black" stroke-dasharray="5,3" x1="1133.85824" x2="1133.85824" y1="194.881885" y2="230.314955" /></g><g><line stroke="black" stroke-dasharray="5,3" x1="1162.204696" x2="1169.29131" y1="230.314955" y2="230.314955" /><marker id="id4" markerHeight="10" markerWidth="10" refX="5" refY="5"><circle cx="5" cy="5" fill="#000000" opacity="0.5" r="5" stroke-width="0" /></marker><line marker-end="url(#id4)" stroke="black" stroke-dasharray="5,3" x1="1169.29131" x2="1169.29131" y1="230.314955" y2="265.748025" /></g><g><line stroke="black" stroke-dasharray="5,3" x1="1481.102326" x2="1488.18894" y1="265.748025" y2="265.748025" /><marker id="id5" markerHeight="10" markerWidth="10" refX="5" refY="5"><circle cx="5" cy="5" fill="#000000" opacity="0.5" r="5" stroke-width="0" /></marker><line marker-end="url(#id5)" stroke="black" stroke-dasharray="5,3" x1="1488.18894" x2="1488.18894" y1="265.748025" y2="301.18109499999997" /></g></g></g></svg>
